<?xml version="1.0" encoding="utf-8"?>
<!-- Generator: Adobe Illustrator 24.1.2, SVG Export Plug-In . SVG Version: 6.00 Build 0)  -->
<svg version="1.1" id="Layer_2" xmlns="http://www.w3.org/2000/svg" xmlns:xlink="http://www.w3.org/1999/xlink" x="0px" y="0px"
	 viewBox="0 0 129.56 20.66" style="enable-background:new 0 0 129.56 20.66;" xml:space="preserve">
<g id="XMLID_14_">
	<g id="XMLID_95_">
		<path id="XMLID_66_" d="M70.88,9.92c0.04,0,0.08,0,0.12,0c0.77,2.79,2.18,8.32,2.18,8.32l3.31-0.01l0.06-15.85l-3.09,0.07
			c0,0,0.15,5.64,0.22,8.4c-0.02,0-0.04-0.01-0.06-0.01c-0.72-2.78-2.17-8.43-2.17-8.43l-3.4,0.02l-0.01,15.91l3.03-0.05
			C71.06,18.3,71.02,12.66,70.88,9.92z"/>
	</g>
	<g id="XMLID_92_">
		<path id="XMLID_55_" d="M33.12,16.94c-0.77-2.24-2.63-7.55-2.63-7.55s1.49-3.97,2.09-5.55c0.19-0.49,0.35-0.99,0.53-1.5
			c-0.89-0.06-3.23-0.15-3.23-0.15l-1.47,4.28c-0.18,0.53-0.36,1.05-0.54,1.58c-0.07-0.01-0.14-0.02-0.21-0.03
			c0.02-1.9,0.09-5.85,0.09-5.85l-3.3,0.02c0,0-0.04,10.59-0.05,15.93c1.12-0.01,3.32-0.02,3.32-0.02l0.14-4.22l0.48-1.22
			c0,0,1.06,3.64,1.58,5.43c1.17-0.01,2.25-0.01,3.47-0.02C33.3,17.61,33.24,17.27,33.12,16.94z"/>
	</g>
	<g id="XMLID_89_">
		<path id="XMLID_50_" d="M104.4,2.33c-0.01,0.18-0.1,7.66-0.17,11.28c-0.01,0.38-0.03,0.79-0.19,1.11
			c-0.11,0.22-0.47,0.44-0.72,0.44c-0.25,0-0.63-0.22-0.72-0.44c-0.16-0.36-0.17-0.8-0.17-1.21c0.01-3.49,0.06-10.97,0.03-11.28
			l-3.17,0.07c-0.02,4.01-0.06,8.29-0.03,12.3c0,0.93,0.3,1.87,1.03,2.52c1.43,1.28,3.15,1.44,4.86,0.79
			c1.5-0.57,2.12-1.94,2.19-3.45c0.16-3.84,0.27-11.9,0.26-12.12C106.55,2.34,105.41,2.31,104.4,2.33z"/>
	</g>
	<g id="XMLID_86_">
		<path id="XMLID_48_" d="M89.5,2.38c-0.04,5.35-0.07,10.58-0.11,15.9c2.54-0.01,4.95-0.03,7.46-0.04c0.02-1.17,0.04-2.18,0.06-3.22
			c-1.45-0.03-2.78-0.06-4.2-0.09c0.01-1.09,0.03-2.12,0.04-3.18c1.14,0,3.82-0.02,3.82-0.02s0.07-2.29,0.1-3.23
			c-1.34-0.03-2.6-0.06-3.96-0.09c0.02-0.93,0.05-1.77,0.07-2.65c1.34-0.03,2.55-0.06,3.75-0.08c0.09-1.13,0.18-2.17,0.27-3.31
			C94.33,2.38,91.97,2.38,89.5,2.38z"/>
	</g>
	<g id="XMLID_83_">
		<path id="XMLID_42_" d="M121.36,13.01c0.14,1.2,0.2,2.26,0.4,3.29c0.16,0.81,0.68,1.44,1.42,1.86c1.66,0.95,4.67,0.75,5.77-1.5
			c0.25-0.51,0.39-1.08,0.49-1.64c0.43-2.39-0.27-4.36-2.25-5.83c-0.54-0.4-1.09-0.79-1.62-1.2c-0.25-0.19-0.55-0.4-0.67-0.67
			c-0.17-0.39-0.23-0.84-0.26-1.27c-0.04-0.47,0.19-0.89,0.68-0.85c0.31,0.02,0.72,0.28,0.87,0.56c0.23,0.43,0.27,0.95,0.41,1.49
			c0.98-0.07,2.97-0.2,2.97-0.2s-0.31-1.64-0.55-2.39c-0.46-1.44-1.44-2.25-2.96-2.5c-2.01-0.32-3.32,0.38-4.21,2.02
			c-1,2.62-0.16,5.33,2.07,7.02c0.71,0.54,1.43,1.11,1.99,1.79c0.35,0.43,0.55,1.08,0.58,1.65c0.03,0.68-0.38,1-0.91,1
			c-0.68,0-1.04-0.32-1.13-1.04c-0.06-0.5-0.07-1-0.11-1.54C123.34,13.04,122.46,13.02,121.36,13.01z"/>
	</g>
	<g id="XMLID_73_">
		<path id="XMLID_93_" d="M85.81,10.01c-0.02-0.04-0.04-0.06-0.07-0.12c0.74-0.35,1.38-1.65,1.47-3.3c0.13-2.24-0.88-3.8-3.14-4.09
			c-1.69-0.21-5.08-0.1-5.08-0.1l-0.07,15.82c0,0,3.66-0.05,5.41-0.21c1.5-0.14,1.92-0.74,2.56-1.83c0.31-0.52,0.54-1.74,0.55-2.34
			C87.48,11.8,87.11,10.64,85.81,10.01z M82.24,5.49c0.52,0,1.12-0.15,1.43,0.4c0.35,0.63,0.34,1.36,0,2.03
			c-0.3,0.6-0.85,0.56-1.47,0.52C82.21,7.46,82.22,6.52,82.24,5.49z M82.21,15.26c-0.04-1.21-0.07-2.34-0.11-3.46
			c1.24-0.24,2.04,0.38,2.03,1.27C84.1,14.95,83.84,15.12,82.21,15.26z"/>
	</g>
	<g id="XMLID_64_">
		<path id="XMLID_74_" d="M65.35,7.2c-0.01-0.54,0.02-1.1-0.1-1.63C65.13,5,64.93,4.4,64.62,3.91c-0.58-0.92-1.55-1.4-2.59-1.48
			c-1.68-0.13-3.37-0.08-5.14-0.11c0,5.45,0,10.71,0.01,16.01c1.11-0.05,3.18-0.09,3.18-0.09s0.03-4.06,0.05-6.02
			c1.54-0.02,1.65,0.02,1.83,1.34c0.18,1.26,0.23,2.55,0.33,3.83c0.02,0.31,0.05,0.87,0.05,0.87s2.23,0.03,3.36-0.02
			c-0.06-1.29-0.14-2.56-0.19-3.83c-0.05-1.5-0.22-2.94-1.59-3.94C65.1,9.62,65.37,8.47,65.35,7.2z M62.13,7.68
			c0.01,1.3-0.6,1.67-1.93,1.39c-0.01-1.16-0.01-2.29-0.02-3.42C62.2,5.65,62.11,5.86,62.13,7.68z"/>
	</g>
	<g id="XMLID_53_">
		<path id="XMLID_67_" d="M119.01,15.28c-0.09-1.11-0.15-2.23-0.33-3.34c-0.12-0.75-0.49-1.39-1.29-1.67
			c0.4-0.26,0.65-0.5,0.88-0.83c1.25-1.83,1.04-4.46-0.49-6.04c-0.69-0.71-1.48-1.16-2.54-1.13c-1.42,0-3.48-0.05-4.66-0.07
			c-0.05,5.27-0.14,10.56-0.19,15.84c1.13,0,2.1,0,3.13,0.01c0.04-2.09,0.08-4.06,0.12-6.01c1.57-0.12,1.65-0.06,1.8,1.33
			c0.04,0.32,0.05,0.64,0.07,0.96c0.09,1.23,0.18,2.47,0.28,3.76c1.2-0.01,2.28-0.02,3.35-0.04
			C119.1,17.05,119.07,16.17,119.01,15.28z M113.79,8.88c0.02-1.16-0.06-2.25-0.05-3.49c1.37-0.04,1.94,0.31,1.92,1.81
			C115.65,8.54,114.89,9.07,113.79,8.88z"/>
	</g>
	<g id="XMLID_32_">
		<path id="XMLID_62_" d="M43.45,9.98c0.04-1.66-0.1-3.33-0.23-4.98c-0.07-0.99-0.64-1.7-1.46-2.26c-1.47-0.99-3.03-0.95-4.59-0.4
			c-0.92,0.33-1.63,1.01-1.84,2.06c-0.2,1-0.32,1.75-0.44,3.05c-0.12,1.3-0.18,3.24-0.12,4.88c0.04,1.15,0.15,2.3,0.37,3.42
			c0.28,1.41,1.22,2.32,2.61,2.65c0.68,0.16,1.41,0.2,2.1,0.15c1.73-0.13,2.93-1.18,3.17-2.93C43.27,13.75,43.41,11.86,43.45,9.98z
			 M40.03,14.52c-0.15,0.64-0.53,0.99-1.02,0.96c-0.48-0.03-0.83-0.44-0.88-1.08c-0.04-0.51-0.04-1.02-0.03-1.53
			c0.05-2.17,0.11-4.34,0.17-6.51c0.01-0.22-0.03-0.51,0.09-0.65c0.26-0.3,0.57-0.6,0.93-0.72c0.13-0.04,0.57,0.4,0.64,0.67
			c0.18,0.7,0.31,1.44,0.31,2.17c-0.01,2.01-0.1,4.02-0.16,6.03c0.01,0.01,0.02,0.01,0.03,0C40.08,14.08,40.08,14.31,40.03,14.52z"
			/>
	</g>
	<g id="XMLID_16_">
		<path id="XMLID_56_" d="M51.63,2.09c-0.66-0.21-1.45-0.14-2.16-0.05c-2.21,0.3-3.06,1.1-3.32,3.29C45.97,6.75,46.03,8.2,46,9.64
			c-0.03,1.54-0.11,3.08-0.02,4.61c0.09,1.49,0.43,2.97,1.94,3.74c1.55,0.79,3.11,0.5,4.62-0.17c0.32-0.14,0.66-0.47,0.79-0.8
			c0.36-0.91,0.79-1.85,0.87-2.8l0.23-4.22c-0.03-1.28-0.09-2.56-0.09-3.84C54.34,4.09,53.51,2.7,51.63,2.09z M51.19,8.73
			c0,0.29-0.01,0.58-0.02,0.86L51.03,14c-0.06,0.93-0.4,1.36-0.91,1.39c-0.5,0.03-0.79-0.4-0.93-1.34c-0.38-2.65-0.09-5.3,0.06-7.94
			c0.03-0.59,0.55-1.21,0.92-1.23c0.39-0.02,0.95,0.63,0.99,1.27C51.2,7,51.19,7.87,51.19,8.73z"/>
	</g>
</g>
<path id="XMLID_2_" d="M1.09,18.48L0,5.83h2.87l3.8-3.88l6.7,0.14l3.89,3.52h3.14l-1.22,13.03L1.09,18.48z M7.34,4.67
	c0,0,0.03,2.16-0.02,3.08C5.04,6.57,3.96,7.58,3.64,9.74c-0.3,2.06,0.05,3.7,0.22,4.6c0.17,0.9,1.06,1.93,1.92,1.84
	c0.34-0.04,1.28-0.41,1.65-0.69c0,0.25,0,0.39,0,0.39l2.23-0.04c0,0,0.03-7.44,0.04-11.16C8.91,4.68,7.34,4.67,7.34,4.67z
	 M6.74,13.76c-0.11-0.07-0.38-0.88-0.4-1.93c-0.02-0.97,0.2-2.18,0.27-2.38c0.15-0.41,0.7,0.09,0.7,0.09L7.3,13.7
	C7.3,13.7,6.95,13.9,6.74,13.76z M16.82,9.25c-0.06-0.5-0.31-1.14-0.69-1.41c-1.04-0.74-2.29-0.81-3.48-0.41
	c-1.08,0.37-1.69,1.27-1.75,2.4c-0.07,1.43-0.07,2.87,0.02,4.3c0.02,0.44,0.29,0.99,0.63,1.28c1.14,0.98,2.49,1.15,3.87,0.57
	c1.29-0.54,1.4-1.68,1.46-3c-0.79,0-1.48-0.01-2.17-0.01c0,0.36-0.18,1.09-0.34,1.2c-0.16,0.11-0.61,0.2-0.78,0.03
	c-0.17-0.17-0.29-1.33-0.29-2c1.08-0.04,2.28-0.06,3.57-0.11C16.88,11,16.92,10.16,16.82,9.25z M14.61,10.35l-1.25,0.01
	c0,0-0.02-0.39,0.16-0.68c0.3-0.49,0.87-0.39,0.99-0.19C14.63,9.69,14.61,10.35,14.61,10.35z"/>
</svg>
